<mxfile host="app.diagrams.net" modified="2021-08-28T17:25:26.549Z" agent="5.0 (Windows NT 10.0; Win64; x64) AppleWebKit/537.36 (KHTML, like Gecko) Chrome/92.0.4515.159 Safari/537.36" etag="JhkPYG0QreED7YZuJc8K" version="15.0.3" type="github">
  <diagram id="vhvqllevuge-OY_BeRzw" name="Page-1">
    <mxGraphModel dx="1345" dy="794" grid="1" gridSize="10" guides="1" tooltips="1" connect="1" arrows="1" fold="1" page="1" pageScale="1" pageWidth="827" pageHeight="1169" math="0" shadow="0">
      <root>
        <mxCell id="0" />
        <mxCell id="1" parent="0" />
        <mxCell id="ZoqWz-siZJQdX3Q4jxba-15" style="edgeStyle=orthogonalEdgeStyle;rounded=0;orthogonalLoop=1;jettySize=auto;html=1;entryX=0.5;entryY=0;entryDx=0;entryDy=0;" edge="1" parent="1" source="ZoqWz-siZJQdX3Q4jxba-1" target="ZoqWz-siZJQdX3Q4jxba-3">
          <mxGeometry relative="1" as="geometry" />
        </mxCell>
        <mxCell id="ZoqWz-siZJQdX3Q4jxba-1" value="&lt;font style=&quot;vertical-align: inherit&quot;&gt;&lt;font style=&quot;vertical-align: inherit&quot;&gt;Cadastro de eventos&lt;/font&gt;&lt;/font&gt;" style="ellipse;whiteSpace=wrap;html=1;" vertex="1" parent="1">
          <mxGeometry x="90" y="50" width="150" height="60" as="geometry" />
        </mxCell>
        <mxCell id="ZoqWz-siZJQdX3Q4jxba-16" style="edgeStyle=orthogonalEdgeStyle;rounded=0;orthogonalLoop=1;jettySize=auto;html=1;entryX=0.5;entryY=0;entryDx=0;entryDy=0;" edge="1" parent="1" source="ZoqWz-siZJQdX3Q4jxba-3" target="ZoqWz-siZJQdX3Q4jxba-4">
          <mxGeometry relative="1" as="geometry" />
        </mxCell>
        <mxCell id="ZoqWz-siZJQdX3Q4jxba-3" value="&lt;font style=&quot;vertical-align: inherit&quot;&gt;&lt;font style=&quot;vertical-align: inherit&quot;&gt;Informe a data do&lt;br&gt;evento&lt;br&gt;&lt;/font&gt;&lt;/font&gt;" style="rounded=0;whiteSpace=wrap;html=1;" vertex="1" parent="1">
          <mxGeometry x="105" y="170" width="120" height="60" as="geometry" />
        </mxCell>
        <mxCell id="ZoqWz-siZJQdX3Q4jxba-9" value="&lt;font style=&quot;vertical-align: inherit&quot;&gt;&lt;font style=&quot;vertical-align: inherit&quot;&gt;Não&lt;/font&gt;&lt;/font&gt;" style="edgeStyle=orthogonalEdgeStyle;rounded=0;orthogonalLoop=1;jettySize=auto;html=1;entryX=0;entryY=0.5;entryDx=0;entryDy=0;" edge="1" parent="1" source="ZoqWz-siZJQdX3Q4jxba-4" target="ZoqWz-siZJQdX3Q4jxba-10">
          <mxGeometry relative="1" as="geometry">
            <mxPoint x="320" y="330" as="targetPoint" />
          </mxGeometry>
        </mxCell>
        <mxCell id="ZoqWz-siZJQdX3Q4jxba-11" value="&lt;font style=&quot;vertical-align: inherit&quot;&gt;&lt;font style=&quot;vertical-align: inherit&quot;&gt;Sim&lt;/font&gt;&lt;/font&gt;" style="edgeStyle=orthogonalEdgeStyle;rounded=0;orthogonalLoop=1;jettySize=auto;html=1;" edge="1" parent="1" source="ZoqWz-siZJQdX3Q4jxba-4">
          <mxGeometry relative="1" as="geometry">
            <mxPoint x="166" y="460" as="targetPoint" />
          </mxGeometry>
        </mxCell>
        <mxCell id="ZoqWz-siZJQdX3Q4jxba-4" value="&lt;font style=&quot;vertical-align: inherit&quot;&gt;&lt;font style=&quot;vertical-align: inherit&quot;&gt;Verificar se a data&lt;br&gt;é posterior a de&amp;nbsp;&lt;br&gt;hoje&lt;br&gt;&lt;/font&gt;&lt;/font&gt;" style="rhombus;whiteSpace=wrap;html=1;" vertex="1" parent="1">
          <mxGeometry x="81.25" y="280" width="168.75" height="100" as="geometry" />
        </mxCell>
        <mxCell id="ZoqWz-siZJQdX3Q4jxba-10" value="&lt;font style=&quot;vertical-align: inherit&quot;&gt;&lt;font style=&quot;vertical-align: inherit&quot;&gt;Data Inválida&lt;br&gt;&lt;br&gt;&lt;/font&gt;&lt;/font&gt;" style="rounded=0;whiteSpace=wrap;html=1;" vertex="1" parent="1">
          <mxGeometry x="340" y="310" width="110" height="40" as="geometry" />
        </mxCell>
        <mxCell id="ZoqWz-siZJQdX3Q4jxba-19" value="&lt;font style=&quot;vertical-align: inherit&quot;&gt;&lt;font style=&quot;vertical-align: inherit&quot;&gt;Sim&lt;/font&gt;&lt;/font&gt;" style="edgeStyle=orthogonalEdgeStyle;rounded=0;orthogonalLoop=1;jettySize=auto;html=1;" edge="1" parent="1" source="ZoqWz-siZJQdX3Q4jxba-12">
          <mxGeometry relative="1" as="geometry">
            <mxPoint x="166" y="710" as="targetPoint" />
          </mxGeometry>
        </mxCell>
        <mxCell id="ZoqWz-siZJQdX3Q4jxba-21" value="&lt;font style=&quot;vertical-align: inherit&quot;&gt;&lt;font style=&quot;vertical-align: inherit&quot;&gt;Não&lt;/font&gt;&lt;/font&gt;" style="edgeStyle=orthogonalEdgeStyle;rounded=0;orthogonalLoop=1;jettySize=auto;html=1;" edge="1" parent="1" source="ZoqWz-siZJQdX3Q4jxba-12">
          <mxGeometry relative="1" as="geometry">
            <mxPoint x="400" y="510" as="targetPoint" />
          </mxGeometry>
        </mxCell>
        <mxCell id="ZoqWz-siZJQdX3Q4jxba-12" value="&lt;font style=&quot;vertical-align: inherit&quot;&gt;&lt;font style=&quot;vertical-align: inherit&quot;&gt;Maior de 18 anos ?&lt;/font&gt;&lt;/font&gt;" style="rhombus;whiteSpace=wrap;html=1;" vertex="1" parent="1">
          <mxGeometry x="97.04" y="560" width="137.18" height="80" as="geometry" />
        </mxCell>
        <mxCell id="ZoqWz-siZJQdX3Q4jxba-14" value="&lt;font style=&quot;vertical-align: inherit&quot;&gt;&lt;font style=&quot;vertical-align: inherit&quot;&gt;Cadastro não permitido.&lt;br&gt;(Menor de 18 anos)&lt;br&gt;&lt;/font&gt;&lt;/font&gt;" style="rounded=0;whiteSpace=wrap;html=1;" vertex="1" parent="1">
          <mxGeometry x="340" y="450" width="120" height="60" as="geometry" />
        </mxCell>
        <mxCell id="ZoqWz-siZJQdX3Q4jxba-18" style="edgeStyle=orthogonalEdgeStyle;rounded=0;orthogonalLoop=1;jettySize=auto;html=1;entryX=0.5;entryY=0;entryDx=0;entryDy=0;" edge="1" parent="1" source="ZoqWz-siZJQdX3Q4jxba-17" target="ZoqWz-siZJQdX3Q4jxba-12">
          <mxGeometry relative="1" as="geometry" />
        </mxCell>
        <mxCell id="ZoqWz-siZJQdX3Q4jxba-17" value="&lt;font style=&quot;vertical-align: inherit&quot;&gt;&lt;font style=&quot;vertical-align: inherit&quot;&gt;&lt;font style=&quot;vertical-align: inherit&quot;&gt;&lt;font style=&quot;vertical-align: inherit&quot;&gt;Digite sua idade&lt;/font&gt;&lt;/font&gt;&lt;br&gt;&lt;/font&gt;&lt;/font&gt;" style="rounded=0;whiteSpace=wrap;html=1;" vertex="1" parent="1">
          <mxGeometry x="105.63" y="460" width="120" height="60" as="geometry" />
        </mxCell>
        <mxCell id="ZoqWz-siZJQdX3Q4jxba-23" style="edgeStyle=orthogonalEdgeStyle;rounded=0;orthogonalLoop=1;jettySize=auto;html=1;entryX=0;entryY=0.5;entryDx=0;entryDy=0;" edge="1" parent="1" source="ZoqWz-siZJQdX3Q4jxba-20">
          <mxGeometry relative="1" as="geometry">
            <mxPoint x="310" y="740" as="targetPoint" />
          </mxGeometry>
        </mxCell>
        <mxCell id="ZoqWz-siZJQdX3Q4jxba-20" value="&lt;font style=&quot;vertical-align: inherit&quot;&gt;&lt;font style=&quot;vertical-align: inherit&quot;&gt;&lt;font style=&quot;vertical-align: inherit&quot;&gt;&lt;font style=&quot;vertical-align: inherit&quot;&gt;Permitir cadastro&lt;/font&gt;&lt;/font&gt;&lt;/font&gt;&lt;/font&gt;" style="rounded=0;whiteSpace=wrap;html=1;" vertex="1" parent="1">
          <mxGeometry x="105.63" y="710" width="120" height="60" as="geometry" />
        </mxCell>
        <mxCell id="ZoqWz-siZJQdX3Q4jxba-26" style="edgeStyle=orthogonalEdgeStyle;rounded=0;orthogonalLoop=1;jettySize=auto;html=1;entryX=0;entryY=0.5;entryDx=0;entryDy=0;" edge="1" parent="1" source="ZoqWz-siZJQdX3Q4jxba-24" target="ZoqWz-siZJQdX3Q4jxba-25">
          <mxGeometry relative="1" as="geometry" />
        </mxCell>
        <mxCell id="ZoqWz-siZJQdX3Q4jxba-24" value="&lt;font style=&quot;vertical-align: inherit&quot;&gt;&lt;font style=&quot;vertical-align: inherit&quot;&gt;Verificar a quantidade&lt;br&gt;de participantes&lt;br&gt;&lt;/font&gt;&lt;/font&gt;" style="rounded=0;whiteSpace=wrap;html=1;" vertex="1" parent="1">
          <mxGeometry x="310" y="710" width="120" height="60" as="geometry" />
        </mxCell>
        <mxCell id="ZoqWz-siZJQdX3Q4jxba-28" value="&lt;font style=&quot;vertical-align: inherit&quot;&gt;&lt;font style=&quot;vertical-align: inherit&quot;&gt;Não&lt;/font&gt;&lt;/font&gt;" style="edgeStyle=orthogonalEdgeStyle;rounded=0;orthogonalLoop=1;jettySize=auto;html=1;" edge="1" parent="1" source="ZoqWz-siZJQdX3Q4jxba-25" target="ZoqWz-siZJQdX3Q4jxba-29">
          <mxGeometry relative="1" as="geometry">
            <mxPoint x="710" y="740" as="targetPoint" />
          </mxGeometry>
        </mxCell>
        <mxCell id="ZoqWz-siZJQdX3Q4jxba-30" value="&lt;font style=&quot;vertical-align: inherit&quot;&gt;&lt;font style=&quot;vertical-align: inherit&quot;&gt;Sim&lt;/font&gt;&lt;/font&gt;" style="edgeStyle=orthogonalEdgeStyle;rounded=0;orthogonalLoop=1;jettySize=auto;html=1;" edge="1" parent="1" source="ZoqWz-siZJQdX3Q4jxba-25">
          <mxGeometry relative="1" as="geometry">
            <mxPoint x="585" y="620" as="targetPoint" />
          </mxGeometry>
        </mxCell>
        <mxCell id="ZoqWz-siZJQdX3Q4jxba-25" value="&lt;font style=&quot;vertical-align: inherit&quot;&gt;&lt;font style=&quot;vertical-align: inherit&quot;&gt;Inferior a 100 ?&lt;/font&gt;&lt;/font&gt;" style="rhombus;whiteSpace=wrap;html=1;" vertex="1" parent="1">
          <mxGeometry x="530" y="700" width="110" height="80" as="geometry" />
        </mxCell>
        <mxCell id="ZoqWz-siZJQdX3Q4jxba-37" style="edgeStyle=orthogonalEdgeStyle;rounded=0;orthogonalLoop=1;jettySize=auto;html=1;entryX=0.5;entryY=1;entryDx=0;entryDy=0;" edge="1" parent="1" source="ZoqWz-siZJQdX3Q4jxba-29" target="ZoqWz-siZJQdX3Q4jxba-32">
          <mxGeometry relative="1" as="geometry" />
        </mxCell>
        <mxCell id="ZoqWz-siZJQdX3Q4jxba-29" value="&lt;font style=&quot;vertical-align: inherit&quot;&gt;&lt;font style=&quot;vertical-align: inherit&quot;&gt;limite de participantes excedido.&lt;/font&gt;&lt;/font&gt;" style="rounded=0;whiteSpace=wrap;html=1;" vertex="1" parent="1">
          <mxGeometry x="710" y="715" width="100" height="50" as="geometry" />
        </mxCell>
        <mxCell id="ZoqWz-siZJQdX3Q4jxba-32" value="&lt;font style=&quot;vertical-align: inherit&quot;&gt;&lt;font style=&quot;vertical-align: inherit&quot;&gt;Fim&lt;/font&gt;&lt;/font&gt;" style="ellipse;whiteSpace=wrap;html=1;" vertex="1" parent="1">
          <mxGeometry x="700" y="390" width="120" height="60" as="geometry" />
        </mxCell>
        <mxCell id="ZoqWz-siZJQdX3Q4jxba-36" value="&lt;font style=&quot;vertical-align: inherit&quot;&gt;&lt;font style=&quot;vertical-align: inherit&quot;&gt;Usuário Cadastrado&lt;/font&gt;&lt;/font&gt;" style="strokeWidth=2;html=1;shape=mxgraph.flowchart.display;whiteSpace=wrap;" vertex="1" parent="1">
          <mxGeometry x="510" y="560" width="140" height="60" as="geometry" />
        </mxCell>
      </root>
    </mxGraphModel>
  </diagram>
</mxfile>
